<mxfile host="app.diagrams.net" modified="2022-03-19T09:13:45.551Z" agent="5.0 (Windows NT 10.0; Win64; x64) AppleWebKit/537.36 (KHTML, like Gecko) Chrome/99.0.4844.51 Safari/537.36 Edg/99.0.1150.39" etag="uukplYMHc9DgIm6D-DYj" version="17.1.3" type="github">
  <diagram id="XbOKaqfH4eZdRzvgGnbF" name="Page-1">
    <mxGraphModel dx="1038" dy="547" grid="1" gridSize="10" guides="1" tooltips="1" connect="1" arrows="1" fold="1" page="1" pageScale="1" pageWidth="827" pageHeight="1169" math="0" shadow="0">
      <root>
        <mxCell id="0" />
        <mxCell id="1" parent="0" />
        <mxCell id="rXvFDF5TVlSO3VW0NlAG-13" value="请求" style="edgeStyle=orthogonalEdgeStyle;rounded=0;orthogonalLoop=1;jettySize=auto;html=1;exitX=0.5;exitY=1;exitDx=0;exitDy=0;entryX=0.5;entryY=0;entryDx=0;entryDy=0;" edge="1" parent="1" source="rXvFDF5TVlSO3VW0NlAG-8" target="rXvFDF5TVlSO3VW0NlAG-3">
          <mxGeometry relative="1" as="geometry" />
        </mxCell>
        <mxCell id="rXvFDF5TVlSO3VW0NlAG-8" value="ATS Client" style="swimlane;horizontal=0;" vertex="1" parent="1">
          <mxGeometry x="60" y="40" width="370" height="110" as="geometry">
            <mxRectangle x="340" y="130" width="30" height="80" as="alternateBounds" />
          </mxGeometry>
        </mxCell>
        <mxCell id="rXvFDF5TVlSO3VW0NlAG-24" style="edgeStyle=none;rounded=0;orthogonalLoop=1;jettySize=auto;html=1;exitX=0.5;exitY=1;exitDx=0;exitDy=0;entryX=0.5;entryY=1;entryDx=0;entryDy=0;" edge="1" parent="rXvFDF5TVlSO3VW0NlAG-8" source="rXvFDF5TVlSO3VW0NlAG-9" target="rXvFDF5TVlSO3VW0NlAG-8">
          <mxGeometry relative="1" as="geometry" />
        </mxCell>
        <mxCell id="rXvFDF5TVlSO3VW0NlAG-9" value="登录请求" style="rounded=1;whiteSpace=wrap;html=1;" vertex="1" parent="rXvFDF5TVlSO3VW0NlAG-8">
          <mxGeometry x="74" y="30" width="106" height="50" as="geometry" />
        </mxCell>
        <mxCell id="rXvFDF5TVlSO3VW0NlAG-25" style="edgeStyle=none;rounded=0;orthogonalLoop=1;jettySize=auto;html=1;exitX=0.5;exitY=1;exitDx=0;exitDy=0;entryX=0.5;entryY=1;entryDx=0;entryDy=0;" edge="1" parent="rXvFDF5TVlSO3VW0NlAG-8" source="rXvFDF5TVlSO3VW0NlAG-15" target="rXvFDF5TVlSO3VW0NlAG-8">
          <mxGeometry relative="1" as="geometry" />
        </mxCell>
        <mxCell id="rXvFDF5TVlSO3VW0NlAG-15" value="发令请求" style="rounded=1;whiteSpace=wrap;html=1;" vertex="1" parent="rXvFDF5TVlSO3VW0NlAG-8">
          <mxGeometry x="220" y="30" width="106" height="50" as="geometry" />
        </mxCell>
        <mxCell id="rXvFDF5TVlSO3VW0NlAG-10" value="ATS Server" style="swimlane;horizontal=0;" vertex="1" parent="1">
          <mxGeometry x="60" y="198" width="370" height="282" as="geometry">
            <mxRectangle x="340" y="130" width="30" height="80" as="alternateBounds" />
          </mxGeometry>
        </mxCell>
        <mxCell id="rXvFDF5TVlSO3VW0NlAG-27" value="是" style="edgeStyle=none;rounded=0;orthogonalLoop=1;jettySize=auto;html=1;exitX=1;exitY=0.5;exitDx=0;exitDy=0;entryX=0;entryY=0.5;entryDx=0;entryDy=0;" edge="1" parent="rXvFDF5TVlSO3VW0NlAG-10" source="rXvFDF5TVlSO3VW0NlAG-3" target="rXvFDF5TVlSO3VW0NlAG-26">
          <mxGeometry relative="1" as="geometry" />
        </mxCell>
        <mxCell id="rXvFDF5TVlSO3VW0NlAG-34" value="否" style="edgeStyle=none;rounded=0;orthogonalLoop=1;jettySize=auto;html=1;exitX=0.5;exitY=1;exitDx=0;exitDy=0;entryX=0.5;entryY=0;entryDx=0;entryDy=0;startArrow=none;" edge="1" parent="rXvFDF5TVlSO3VW0NlAG-10" source="rXvFDF5TVlSO3VW0NlAG-36">
          <mxGeometry relative="1" as="geometry">
            <mxPoint x="290" y="130" as="targetPoint" />
          </mxGeometry>
        </mxCell>
        <mxCell id="rXvFDF5TVlSO3VW0NlAG-38" value="否" style="edgeStyle=orthogonalEdgeStyle;rounded=0;orthogonalLoop=1;jettySize=auto;html=1;exitX=0.5;exitY=1;exitDx=0;exitDy=0;entryX=0;entryY=0.5;entryDx=0;entryDy=0;" edge="1" parent="rXvFDF5TVlSO3VW0NlAG-10" source="rXvFDF5TVlSO3VW0NlAG-3" target="rXvFDF5TVlSO3VW0NlAG-36">
          <mxGeometry relative="1" as="geometry" />
        </mxCell>
        <mxCell id="rXvFDF5TVlSO3VW0NlAG-3" value="是否登录" style="rhombus;whiteSpace=wrap;html=1;rounded=1;" vertex="1" parent="rXvFDF5TVlSO3VW0NlAG-10">
          <mxGeometry x="60" y="17" width="115" height="60" as="geometry" />
        </mxCell>
        <mxCell id="rXvFDF5TVlSO3VW0NlAG-26" value="获取授权" style="rounded=1;whiteSpace=wrap;html=1;" vertex="1" parent="rXvFDF5TVlSO3VW0NlAG-10">
          <mxGeometry x="247" y="22" width="86" height="50" as="geometry" />
        </mxCell>
        <mxCell id="rXvFDF5TVlSO3VW0NlAG-47" style="edgeStyle=orthogonalEdgeStyle;rounded=0;orthogonalLoop=1;jettySize=auto;html=1;exitX=0.5;exitY=1;exitDx=0;exitDy=0;" edge="1" parent="rXvFDF5TVlSO3VW0NlAG-10" source="rXvFDF5TVlSO3VW0NlAG-36" target="rXvFDF5TVlSO3VW0NlAG-44">
          <mxGeometry relative="1" as="geometry" />
        </mxCell>
        <mxCell id="rXvFDF5TVlSO3VW0NlAG-36" value="校验授权" style="rounded=1;whiteSpace=wrap;html=1;" vertex="1" parent="rXvFDF5TVlSO3VW0NlAG-10">
          <mxGeometry x="247" y="110" width="86" height="50" as="geometry" />
        </mxCell>
        <mxCell id="rXvFDF5TVlSO3VW0NlAG-49" value="是" style="edgeStyle=orthogonalEdgeStyle;rounded=0;orthogonalLoop=1;jettySize=auto;html=1;exitX=0;exitY=0.5;exitDx=0;exitDy=0;entryX=1;entryY=0.5;entryDx=0;entryDy=0;" edge="1" parent="rXvFDF5TVlSO3VW0NlAG-10" source="rXvFDF5TVlSO3VW0NlAG-44" target="rXvFDF5TVlSO3VW0NlAG-48">
          <mxGeometry relative="1" as="geometry" />
        </mxCell>
        <mxCell id="rXvFDF5TVlSO3VW0NlAG-44" value="是否成功" style="rhombus;whiteSpace=wrap;html=1;rounded=1;" vertex="1" parent="rXvFDF5TVlSO3VW0NlAG-10">
          <mxGeometry x="232.5" y="204" width="115" height="60" as="geometry" />
        </mxCell>
        <mxCell id="rXvFDF5TVlSO3VW0NlAG-48" value="处理请求" style="rounded=1;whiteSpace=wrap;html=1;" vertex="1" parent="rXvFDF5TVlSO3VW0NlAG-10">
          <mxGeometry x="74.5" y="209" width="86" height="50" as="geometry" />
        </mxCell>
        <mxCell id="rXvFDF5TVlSO3VW0NlAG-14" value="AMS" style="swimlane;" vertex="1" parent="1">
          <mxGeometry x="550" y="168" width="200" height="330" as="geometry" />
        </mxCell>
        <mxCell id="rXvFDF5TVlSO3VW0NlAG-28" value="处理登录" style="rounded=1;whiteSpace=wrap;html=1;" vertex="1" parent="rXvFDF5TVlSO3VW0NlAG-14">
          <mxGeometry x="47" y="51" width="93" height="50" as="geometry" />
        </mxCell>
        <mxCell id="rXvFDF5TVlSO3VW0NlAG-39" value="处理校验" style="rounded=1;whiteSpace=wrap;html=1;" vertex="1" parent="rXvFDF5TVlSO3VW0NlAG-14">
          <mxGeometry x="47" y="140" width="93" height="50" as="geometry" />
        </mxCell>
        <mxCell id="rXvFDF5TVlSO3VW0NlAG-29" style="edgeStyle=none;rounded=0;orthogonalLoop=1;jettySize=auto;html=1;exitX=1;exitY=0.25;exitDx=0;exitDy=0;entryX=0;entryY=0.25;entryDx=0;entryDy=0;" edge="1" parent="1" source="rXvFDF5TVlSO3VW0NlAG-26" target="rXvFDF5TVlSO3VW0NlAG-28">
          <mxGeometry relative="1" as="geometry" />
        </mxCell>
        <mxCell id="rXvFDF5TVlSO3VW0NlAG-31" value="账号、密码" style="edgeLabel;html=1;align=center;verticalAlign=middle;resizable=0;points=[];" vertex="1" connectable="0" parent="rXvFDF5TVlSO3VW0NlAG-29">
          <mxGeometry x="-0.1761" y="1" relative="1" as="geometry">
            <mxPoint as="offset" />
          </mxGeometry>
        </mxCell>
        <mxCell id="rXvFDF5TVlSO3VW0NlAG-30" style="edgeStyle=none;rounded=0;orthogonalLoop=1;jettySize=auto;html=1;exitX=0;exitY=0.75;exitDx=0;exitDy=0;entryX=1;entryY=0.75;entryDx=0;entryDy=0;" edge="1" parent="1" source="rXvFDF5TVlSO3VW0NlAG-28" target="rXvFDF5TVlSO3VW0NlAG-26">
          <mxGeometry relative="1" as="geometry" />
        </mxCell>
        <mxCell id="rXvFDF5TVlSO3VW0NlAG-32" value="用户信息" style="edgeLabel;html=1;align=center;verticalAlign=middle;resizable=0;points=[];" vertex="1" connectable="0" parent="rXvFDF5TVlSO3VW0NlAG-30">
          <mxGeometry x="0.2259" y="1" relative="1" as="geometry">
            <mxPoint as="offset" />
          </mxGeometry>
        </mxCell>
        <mxCell id="rXvFDF5TVlSO3VW0NlAG-40" style="edgeStyle=orthogonalEdgeStyle;rounded=0;orthogonalLoop=1;jettySize=auto;html=1;exitX=1;exitY=0.25;exitDx=0;exitDy=0;entryX=0;entryY=0.25;entryDx=0;entryDy=0;" edge="1" parent="1" source="rXvFDF5TVlSO3VW0NlAG-36" target="rXvFDF5TVlSO3VW0NlAG-39">
          <mxGeometry relative="1" as="geometry" />
        </mxCell>
        <mxCell id="rXvFDF5TVlSO3VW0NlAG-42" value="判断是否拥有该权限" style="edgeLabel;html=1;align=center;verticalAlign=middle;resizable=0;points=[];" vertex="1" connectable="0" parent="rXvFDF5TVlSO3VW0NlAG-40">
          <mxGeometry x="-0.1784" y="2" relative="1" as="geometry">
            <mxPoint y="1" as="offset" />
          </mxGeometry>
        </mxCell>
        <mxCell id="rXvFDF5TVlSO3VW0NlAG-41" style="edgeStyle=orthogonalEdgeStyle;rounded=0;orthogonalLoop=1;jettySize=auto;html=1;exitX=0;exitY=0.75;exitDx=0;exitDy=0;entryX=1;entryY=0.75;entryDx=0;entryDy=0;" edge="1" parent="1" source="rXvFDF5TVlSO3VW0NlAG-39" target="rXvFDF5TVlSO3VW0NlAG-36">
          <mxGeometry relative="1" as="geometry" />
        </mxCell>
        <mxCell id="rXvFDF5TVlSO3VW0NlAG-43" value="结果" style="edgeLabel;html=1;align=center;verticalAlign=middle;resizable=0;points=[];" vertex="1" connectable="0" parent="rXvFDF5TVlSO3VW0NlAG-41">
          <mxGeometry x="0.198" y="1" relative="1" as="geometry">
            <mxPoint as="offset" />
          </mxGeometry>
        </mxCell>
      </root>
    </mxGraphModel>
  </diagram>
</mxfile>
